<?xml version="1.0" encoding="UTF-8" standalone="no"?>
<!DOCTYPE svg PUBLIC "-//W3C//DTD SVG 1.1//EN"
 "http://www.w3.org/Graphics/SVG/1.1/DTD/svg11.dtd">
<!-- Generated by graphviz version 5.0.0 (20220707.1540)
 -->
<!-- Title: dependencies Pages: 1 -->
<svg width="678pt" height="174pt"
 viewBox="0.00 0.00 678.00 173.80" xmlns="http://www.w3.org/2000/svg" xmlns:xlink="http://www.w3.org/1999/xlink">
<g id="graph0" class="graph" transform="scale(1 1) rotate(0) translate(4 169.8)">
<title>dependencies</title>
<polygon fill="white" stroke="transparent" points="-4,4 -4,-169.8 674,-169.8 674,4 -4,4"/>
<text text-anchor="middle" x="335" y="-8.2" font-family="sans-serif" font-size="14.00">dependencies</text>
<g id="clust1" class="cluster">
<title>cluster_CoreModule</title>
<polygon fill="none" stroke="black" stroke-dasharray="1,5" points="8,-32.8 8,-157.8 662,-157.8 662,-32.8 8,-32.8"/>
</g>
<g id="clust6" class="cluster">
<title>cluster_CoreModule_providers</title>
<polygon fill="none" stroke="black" points="16,-40.8 16,-92.8 654,-92.8 654,-40.8 16,-40.8"/>
</g>
<!-- AuthService -->
<g id="node1" class="node">
<title>AuthService</title>
<ellipse fill="#fdb462" stroke="black" cx="587" cy="-66.8" rx="59.11" ry="18"/>
<text text-anchor="middle" x="587" y="-62.6" font-family="Times,serif" font-size="14.00">AuthService</text>
</g>
<!-- CoreModule -->
<g id="node5" class="node">
<title>CoreModule</title>
<polygon fill="#8dd3c7" stroke="black" points="384.27,-149.8 381.27,-153.8 360.27,-153.8 357.27,-149.8 297.73,-149.8 297.73,-113.8 384.27,-113.8 384.27,-149.8"/>
<text text-anchor="middle" x="341" y="-127.6" font-family="Times,serif" font-size="14.00">CoreModule</text>
</g>
<!-- AuthService&#45;&gt;CoreModule -->
<g id="edge1" class="edge">
<title>AuthService&#45;&gt;CoreModule</title>
<path fill="none" stroke="black" d="M587,-84.91C587,-104.14 587,-131.8 587,-131.8 587,-131.8 394.41,-131.8 394.41,-131.8"/>
<polygon fill="black" stroke="black" points="394.41,-128.3 384.41,-131.8 394.41,-135.3 394.41,-128.3"/>
</g>
<!-- DispatcherService -->
<g id="node2" class="node">
<title>DispatcherService</title>
<ellipse fill="#fdb462" stroke="black" cx="428" cy="-66.8" rx="81.65" ry="18"/>
<text text-anchor="middle" x="428" y="-62.6" font-family="Times,serif" font-size="14.00">DispatcherService</text>
</g>
<!-- DispatcherService&#45;&gt;CoreModule -->
<g id="edge2" class="edge">
<title>DispatcherService&#45;&gt;CoreModule</title>
<path fill="none" stroke="black" d="M365.28,-78.42C365.28,-78.42 365.28,-103.65 365.28,-103.65"/>
<polygon fill="black" stroke="black" points="361.78,-103.65 365.28,-113.65 368.78,-103.65 361.78,-103.65"/>
</g>
<!-- MessageService -->
<g id="node3" class="node">
<title>MessageService</title>
<ellipse fill="#fdb462" stroke="black" cx="254" cy="-66.8" rx="73.57" ry="18"/>
<text text-anchor="middle" x="254" y="-62.6" font-family="Times,serif" font-size="14.00">MessageService</text>
</g>
<!-- MessageService&#45;&gt;CoreModule -->
<g id="edge3" class="edge">
<title>MessageService&#45;&gt;CoreModule</title>
<path fill="none" stroke="black" d="M312.7,-77.83C312.7,-77.83 312.7,-103.58 312.7,-103.58"/>
<polygon fill="black" stroke="black" points="309.2,-103.58 312.7,-113.58 316.2,-103.58 309.2,-103.58"/>
</g>
<!-- StorageService -->
<g id="node4" class="node">
<title>StorageService</title>
<ellipse fill="#fdb462" stroke="black" cx="93" cy="-66.8" rx="69.48" ry="18"/>
<text text-anchor="middle" x="93" y="-62.6" font-family="Times,serif" font-size="14.00">StorageService</text>
</g>
<!-- StorageService&#45;&gt;CoreModule -->
<g id="edge4" class="edge">
<title>StorageService&#45;&gt;CoreModule</title>
<path fill="none" stroke="black" d="M93,-84.91C93,-104.14 93,-131.8 93,-131.8 93,-131.8 287.52,-131.8 287.52,-131.8"/>
<polygon fill="black" stroke="black" points="287.52,-135.3 297.52,-131.8 287.52,-128.3 287.52,-135.3"/>
</g>
</g>
</svg>
