<?xml version="1.0" encoding="UTF-8" standalone="no"?>
<!DOCTYPE svg PUBLIC "-//W3C//DTD SVG 1.1//EN"
 "http://www.w3.org/Graphics/SVG/1.1/DTD/svg11.dtd">
<!-- Generated by graphviz version 5.0.0 (20220707.1540)
 -->
<!-- Title: dependencies Pages: 1 -->
<svg width="285pt" height="174pt"
 viewBox="0.00 0.00 285.00 173.80" xmlns="http://www.w3.org/2000/svg" xmlns:xlink="http://www.w3.org/1999/xlink">
<g id="graph0" class="graph" transform="scale(1 1) rotate(0) translate(4 169.8)">
<title>dependencies</title>
<polygon fill="white" stroke="transparent" points="-4,4 -4,-169.8 281,-169.8 281,4 -4,4"/>
<text text-anchor="middle" x="138.5" y="-8.2" font-family="sans-serif" font-size="14.00">dependencies</text>
<g id="clust1" class="cluster">
<title>cluster_PagesModule</title>
<polygon fill="none" stroke="black" stroke-dasharray="1,5" points="8,-32.8 8,-157.8 269,-157.8 269,-32.8 8,-32.8"/>
</g>
<g id="clust3" class="cluster">
<title>cluster_PagesModule_imports</title>
<polygon fill="none" stroke="black" points="16,-40.8 16,-92.8 261,-92.8 261,-40.8 16,-40.8"/>
</g>
<!-- FeaturesModule -->
<g id="node1" class="node">
<title>FeaturesModule</title>
<polygon fill="#8dd3c7" stroke="black" points="253.48,-84.8 250.48,-88.8 229.48,-88.8 226.48,-84.8 146.52,-84.8 146.52,-48.8 253.48,-48.8 253.48,-84.8"/>
<text text-anchor="middle" x="200" y="-62.6" font-family="Times,serif" font-size="14.00">FeaturesModule</text>
</g>
<!-- PagesModule -->
<g id="node3" class="node">
<title>PagesModule</title>
<polygon fill="#8dd3c7" stroke="black" points="184.21,-149.8 181.21,-153.8 160.21,-153.8 157.21,-149.8 91.79,-149.8 91.79,-113.8 184.21,-113.8 184.21,-149.8"/>
<text text-anchor="middle" x="138" y="-127.6" font-family="Times,serif" font-size="14.00">PagesModule</text>
</g>
<!-- FeaturesModule&#45;&gt;PagesModule -->
<g id="edge1" class="edge">
<title>FeaturesModule&#45;&gt;PagesModule</title>
<path fill="none" stroke="black" d="M165.31,-84.91C165.31,-84.91 165.31,-103.79 165.31,-103.79"/>
<polygon fill="black" stroke="black" points="161.81,-103.79 165.31,-113.79 168.81,-103.79 161.81,-103.79"/>
</g>
<!-- LayoutsModule -->
<g id="node2" class="node">
<title>LayoutsModule</title>
<polygon fill="#8dd3c7" stroke="black" points="128.16,-84.8 125.16,-88.8 104.16,-88.8 101.16,-84.8 23.84,-84.8 23.84,-48.8 128.16,-48.8 128.16,-84.8"/>
<text text-anchor="middle" x="76" y="-62.6" font-family="Times,serif" font-size="14.00">LayoutsModule</text>
</g>
<!-- LayoutsModule&#45;&gt;PagesModule -->
<g id="edge2" class="edge">
<title>LayoutsModule&#45;&gt;PagesModule</title>
<path fill="none" stroke="black" d="M110.11,-84.91C110.11,-84.91 110.11,-103.79 110.11,-103.79"/>
<polygon fill="black" stroke="black" points="106.61,-103.79 110.11,-113.79 113.61,-103.79 106.61,-103.79"/>
</g>
</g>
</svg>
