<?xml version="1.0" encoding="UTF-8" standalone="no"?>
<!DOCTYPE svg PUBLIC "-//W3C//DTD SVG 1.1//EN"
 "http://www.w3.org/Graphics/SVG/1.1/DTD/svg11.dtd">
<!-- Generated by graphviz version 5.0.0 (20220707.1540)
 -->
<!-- Title: dependencies Pages: 1 -->
<svg width="1060pt" height="247pt"
 viewBox="0.00 0.00 1060.00 246.80" xmlns="http://www.w3.org/2000/svg" xmlns:xlink="http://www.w3.org/1999/xlink">
<g id="graph0" class="graph" transform="scale(1 1) rotate(0) translate(4 242.8)">
<title>dependencies</title>
<polygon fill="white" stroke="transparent" points="-4,4 -4,-242.8 1056,-242.8 1056,4 -4,4"/>
<text text-anchor="middle" x="526" y="-8.2" font-family="sans-serif" font-size="14.00">dependencies</text>
<g id="clust1" class="cluster">
<title>cluster_PagesModule</title>
<polygon fill="none" stroke="black" stroke-dasharray="1,5" points="8,-32.8 8,-230.8 1044,-230.8 1044,-32.8 8,-32.8"/>
</g>
<g id="clust7" class="cluster">
<title>cluster_PagesModule_imports</title>
<polygon fill="none" stroke="black" points="674,-40.8 674,-92.8 1036,-92.8 1036,-40.8 674,-40.8"/>
</g>
<g id="clust2" class="cluster">
<title>cluster_PagesModule_declarations</title>
<polygon fill="none" stroke="black" points="16,-40.8 16,-92.8 666,-92.8 666,-40.8 16,-40.8"/>
</g>
<g id="clust8" class="cluster">
<title>cluster_PagesModule_exports</title>
<polygon fill="none" stroke="black" points="247,-170.8 247,-222.8 911,-222.8 911,-170.8 247,-170.8"/>
</g>
<!-- PageHomeComponent -->
<g id="node1" class="node">
<title>PageHomeComponent</title>
<polygon fill="#ffffb3" stroke="black" points="658.26,-84.8 515.74,-84.8 515.74,-48.8 658.26,-48.8 658.26,-84.8"/>
<text text-anchor="middle" x="587" y="-62.6" font-family="Times,serif" font-size="14.00">PageHomeComponent</text>
</g>
<!-- PagesModule -->
<g id="node5" class="node">
<title>PagesModule</title>
<polygon fill="#8dd3c7" stroke="black" points="633.21,-149.8 630.21,-153.8 609.21,-153.8 606.21,-149.8 540.79,-149.8 540.79,-113.8 633.21,-113.8 633.21,-149.8"/>
<text text-anchor="middle" x="587" y="-127.6" font-family="Times,serif" font-size="14.00">PagesModule</text>
</g>
<!-- PageHomeComponent&#45;&gt;PagesModule -->
<g id="edge1" class="edge">
<title>PageHomeComponent&#45;&gt;PagesModule</title>
<path fill="none" stroke="black" d="M587,-84.91C587,-84.91 587,-103.79 587,-103.79"/>
<polygon fill="black" stroke="black" points="583.5,-103.79 587,-113.79 590.5,-103.79 583.5,-103.79"/>
</g>
<!-- PageInfosComponent -->
<g id="node2" class="node">
<title>PageInfosComponent</title>
<polygon fill="#ffffb3" stroke="black" points="497.82,-84.8 360.18,-84.8 360.18,-48.8 497.82,-48.8 497.82,-84.8"/>
<text text-anchor="middle" x="429" y="-62.6" font-family="Times,serif" font-size="14.00">PageInfosComponent</text>
</g>
<!-- PageInfosComponent&#45;&gt;PagesModule -->
<g id="edge2" class="edge">
<title>PageInfosComponent&#45;&gt;PagesModule</title>
<path fill="none" stroke="black" d="M465.96,-84.81C465.96,-100.85 465.96,-121.8 465.96,-121.8 465.96,-121.8 530.55,-121.8 530.55,-121.8"/>
<polygon fill="black" stroke="black" points="530.55,-125.3 540.55,-121.8 530.55,-118.3 530.55,-125.3"/>
</g>
<!-- PageLoginComponent -->
<g id="node3" class="node">
<title>PageLoginComponent</title>
<polygon fill="#ffffb3" stroke="black" points="341.99,-84.8 200.01,-84.8 200.01,-48.8 341.99,-48.8 341.99,-84.8"/>
<text text-anchor="middle" x="271" y="-62.6" font-family="Times,serif" font-size="14.00">PageLoginComponent</text>
</g>
<!-- PageLoginComponent&#45;&gt;PagesModule -->
<g id="edge3" class="edge">
<title>PageLoginComponent&#45;&gt;PagesModule</title>
<path fill="none" stroke="black" d="M298.74,-85.07C298.74,-103.36 298.74,-128.8 298.74,-128.8 298.74,-128.8 530.69,-128.8 530.69,-128.8"/>
<polygon fill="black" stroke="black" points="530.69,-132.3 540.69,-128.8 530.69,-125.3 530.69,-132.3"/>
</g>
<!-- PageMessageComponent -->
<g id="node4" class="node">
<title>PageMessageComponent</title>
<polygon fill="#ffffb3" stroke="black" points="181.53,-84.8 24.47,-84.8 24.47,-48.8 181.53,-48.8 181.53,-84.8"/>
<text text-anchor="middle" x="103" y="-62.6" font-family="Times,serif" font-size="14.00">PageMessageComponent</text>
</g>
<!-- PageMessageComponent&#45;&gt;PagesModule -->
<g id="edge4" class="edge">
<title>PageMessageComponent&#45;&gt;PagesModule</title>
<path fill="none" stroke="black" d="M103,-84.93C103,-105.37 103,-135.8 103,-135.8 103,-135.8 530.59,-135.8 530.59,-135.8"/>
<polygon fill="black" stroke="black" points="530.59,-139.3 540.59,-135.8 530.59,-132.3 530.59,-139.3"/>
</g>
<!-- PageHomeComponent  -->
<g id="node9" class="node">
<title>PageHomeComponent </title>
<polygon fill="#fb8072" stroke="black" points="903.26,-214.8 756.74,-214.8 756.74,-178.8 903.26,-178.8 903.26,-214.8"/>
<text text-anchor="middle" x="830" y="-192.6" font-family="Times,serif" font-size="14.00">PageHomeComponent </text>
</g>
<!-- PagesModule&#45;&gt;PageHomeComponent  -->
<g id="edge8" class="edge">
<title>PagesModule&#45;&gt;PageHomeComponent </title>
<path fill="none" stroke="black" stroke-dasharray="5,2" d="M633.28,-142.8C687.07,-142.8 768.54,-142.8 768.54,-142.8 768.54,-142.8 768.54,-168.52 768.54,-168.52"/>
<polygon fill="black" stroke="black" points="765.04,-168.52 768.54,-178.52 772.04,-168.52 765.04,-168.52"/>
</g>
<!-- PageInfosComponent  -->
<g id="node10" class="node">
<title>PageInfosComponent </title>
<polygon fill="#fb8072" stroke="black" points="738.32,-214.8 597.68,-214.8 597.68,-178.8 738.32,-178.8 738.32,-214.8"/>
<text text-anchor="middle" x="668" y="-192.6" font-family="Times,serif" font-size="14.00">PageInfosComponent </text>
</g>
<!-- PagesModule&#45;&gt;PageInfosComponent  -->
<g id="edge9" class="edge">
<title>PagesModule&#45;&gt;PageInfosComponent </title>
<path fill="none" stroke="black" stroke-dasharray="5,2" d="M615.35,-149.91C615.35,-149.91 615.35,-168.79 615.35,-168.79"/>
<polygon fill="black" stroke="black" points="611.85,-168.79 615.35,-178.79 618.85,-168.79 611.85,-168.79"/>
</g>
<!-- PageLoginComponent  -->
<g id="node11" class="node">
<title>PageLoginComponent </title>
<polygon fill="#fb8072" stroke="black" points="579.99,-214.8 434.01,-214.8 434.01,-178.8 579.99,-178.8 579.99,-214.8"/>
<text text-anchor="middle" x="507" y="-192.6" font-family="Times,serif" font-size="14.00">PageLoginComponent </text>
</g>
<!-- PagesModule&#45;&gt;PageLoginComponent  -->
<g id="edge10" class="edge">
<title>PagesModule&#45;&gt;PageLoginComponent </title>
<path fill="none" stroke="black" stroke-dasharray="5,2" d="M560.32,-149.91C560.32,-149.91 560.32,-168.79 560.32,-168.79"/>
<polygon fill="black" stroke="black" points="556.82,-168.79 560.32,-178.79 563.82,-168.79 556.82,-168.79"/>
</g>
<!-- PageMessageComponent  -->
<g id="node12" class="node">
<title>PageMessageComponent </title>
<polygon fill="#fb8072" stroke="black" points="416.53,-214.8 255.47,-214.8 255.47,-178.8 416.53,-178.8 416.53,-214.8"/>
<text text-anchor="middle" x="336" y="-192.6" font-family="Times,serif" font-size="14.00">PageMessageComponent </text>
</g>
<!-- PagesModule&#45;&gt;PageMessageComponent  -->
<g id="edge11" class="edge">
<title>PagesModule&#45;&gt;PageMessageComponent </title>
<path fill="none" stroke="black" stroke-dasharray="5,2" d="M540.69,-142.8C482.02,-142.8 388.43,-142.8 388.43,-142.8 388.43,-142.8 388.43,-168.52 388.43,-168.52"/>
<polygon fill="black" stroke="black" points="384.93,-168.52 388.43,-178.52 391.93,-168.52 384.93,-168.52"/>
</g>
<!-- FeaturesModule -->
<g id="node6" class="node">
<title>FeaturesModule</title>
<polygon fill="#8dd3c7" stroke="black" points="1028.48,-84.8 1025.48,-88.8 1004.48,-88.8 1001.48,-84.8 921.52,-84.8 921.52,-48.8 1028.48,-48.8 1028.48,-84.8"/>
<text text-anchor="middle" x="975" y="-62.6" font-family="Times,serif" font-size="14.00">FeaturesModule</text>
</g>
<!-- FeaturesModule&#45;&gt;PagesModule -->
<g id="edge5" class="edge">
<title>FeaturesModule&#45;&gt;PagesModule</title>
<path fill="none" stroke="black" d="M975,-84.93C975,-105.37 975,-135.8 975,-135.8 975,-135.8 643.42,-135.8 643.42,-135.8"/>
<polygon fill="black" stroke="black" points="643.42,-132.3 633.42,-135.8 643.42,-139.3 643.42,-132.3"/>
</g>
<!-- LayoutsModule -->
<g id="node7" class="node">
<title>LayoutsModule</title>
<polygon fill="#8dd3c7" stroke="black" points="903.16,-84.8 900.16,-88.8 879.16,-88.8 876.16,-84.8 798.84,-84.8 798.84,-48.8 903.16,-48.8 903.16,-84.8"/>
<text text-anchor="middle" x="851" y="-62.6" font-family="Times,serif" font-size="14.00">LayoutsModule</text>
</g>
<!-- LayoutsModule&#45;&gt;PagesModule -->
<g id="edge6" class="edge">
<title>LayoutsModule&#45;&gt;PagesModule</title>
<path fill="none" stroke="black" d="M850.9,-85.07C850.9,-103.36 850.9,-128.8 850.9,-128.8 850.9,-128.8 643.27,-128.8 643.27,-128.8"/>
<polygon fill="black" stroke="black" points="643.27,-125.3 633.27,-128.8 643.27,-132.3 643.27,-125.3"/>
</g>
<!-- SharedModule -->
<g id="node8" class="node">
<title>SharedModule</title>
<polygon fill="#8dd3c7" stroke="black" points="780.43,-84.8 777.43,-88.8 756.43,-88.8 753.43,-84.8 681.57,-84.8 681.57,-48.8 780.43,-48.8 780.43,-84.8"/>
<text text-anchor="middle" x="731" y="-62.6" font-family="Times,serif" font-size="14.00">SharedModule</text>
</g>
<!-- SharedModule&#45;&gt;PagesModule -->
<g id="edge7" class="edge">
<title>SharedModule&#45;&gt;PagesModule</title>
<path fill="none" stroke="black" d="M710.1,-84.81C710.1,-100.85 710.1,-121.8 710.1,-121.8 710.1,-121.8 643.19,-121.8 643.19,-121.8"/>
<polygon fill="black" stroke="black" points="643.19,-118.3 633.19,-121.8 643.19,-125.3 643.19,-118.3"/>
</g>
</g>
</svg>
