<?xml version="1.0" encoding="UTF-8" standalone="no"?>
<!DOCTYPE svg PUBLIC "-//W3C//DTD SVG 1.1//EN"
 "http://www.w3.org/Graphics/SVG/1.1/DTD/svg11.dtd">
<!-- Generated by graphviz version 5.0.0 (20220707.1540)
 -->
<!-- Title: dependencies Pages: 1 -->
<svg width="715pt" height="247pt"
 viewBox="0.00 0.00 715.00 246.80" xmlns="http://www.w3.org/2000/svg" xmlns:xlink="http://www.w3.org/1999/xlink">
<g id="graph0" class="graph" transform="scale(1 1) rotate(0) translate(4 242.8)">
<title>dependencies</title>
<polygon fill="white" stroke="transparent" points="-4,4 -4,-242.8 711,-242.8 711,4 -4,4"/>
<text text-anchor="middle" x="353.5" y="-8.2" font-family="sans-serif" font-size="14.00">dependencies</text>
<g id="clust1" class="cluster">
<title>cluster_LayoutsModule</title>
<polygon fill="none" stroke="black" stroke-dasharray="1,5" points="8,-32.8 8,-230.8 699,-230.8 699,-32.8 8,-32.8"/>
</g>
<g id="clust7" class="cluster">
<title>cluster_LayoutsModule_exports</title>
<polygon fill="none" stroke="black" points="72,-170.8 72,-222.8 635,-222.8 635,-170.8 72,-170.8"/>
</g>
<g id="clust2" class="cluster">
<title>cluster_LayoutsModule_declarations</title>
<polygon fill="none" stroke="black" points="138,-40.8 138,-92.8 691,-92.8 691,-40.8 138,-40.8"/>
</g>
<g id="clust6" class="cluster">
<title>cluster_LayoutsModule_imports</title>
<polygon fill="none" stroke="black" points="16,-40.8 16,-92.8 130,-92.8 130,-40.8 16,-40.8"/>
</g>
<!-- LayoutGenericComponent -->
<g id="node1" class="node">
<title>LayoutGenericComponent</title>
<polygon fill="#ffffb3" stroke="black" points="682.79,-84.8 517.21,-84.8 517.21,-48.8 682.79,-48.8 682.79,-84.8"/>
<text text-anchor="middle" x="600" y="-62.6" font-family="Times,serif" font-size="14.00">LayoutGenericComponent</text>
</g>
<!-- LayoutsModule -->
<g id="node4" class="node">
<title>LayoutsModule</title>
<polygon fill="#8dd3c7" stroke="black" points="419.16,-149.8 416.16,-153.8 395.16,-153.8 392.16,-149.8 314.84,-149.8 314.84,-113.8 419.16,-113.8 419.16,-149.8"/>
<text text-anchor="middle" x="367" y="-127.6" font-family="Times,serif" font-size="14.00">LayoutsModule</text>
</g>
<!-- LayoutGenericComponent&#45;&gt;LayoutsModule -->
<g id="edge1" class="edge">
<title>LayoutGenericComponent&#45;&gt;LayoutsModule</title>
<path fill="none" stroke="black" d="M572.38,-84.82C572.38,-102.17 572.38,-125.8 572.38,-125.8 572.38,-125.8 429.36,-125.8 429.36,-125.8"/>
<polygon fill="black" stroke="black" points="429.36,-122.3 419.36,-125.8 429.36,-129.3 429.36,-122.3"/>
</g>
<!-- LayoutTileComponent -->
<g id="node2" class="node">
<title>LayoutTileComponent</title>
<polygon fill="#ffffb3" stroke="black" points="499.53,-84.8 356.47,-84.8 356.47,-48.8 499.53,-48.8 499.53,-84.8"/>
<text text-anchor="middle" x="428" y="-62.6" font-family="Times,serif" font-size="14.00">LayoutTileComponent</text>
</g>
<!-- LayoutTileComponent&#45;&gt;LayoutsModule -->
<g id="edge2" class="edge">
<title>LayoutTileComponent&#45;&gt;LayoutsModule</title>
<path fill="none" stroke="black" d="M387.78,-84.91C387.78,-84.91 387.78,-103.79 387.78,-103.79"/>
<polygon fill="black" stroke="black" points="384.28,-103.79 387.78,-113.79 391.28,-103.79 384.28,-103.79"/>
</g>
<!-- LayoutTwoColumnComponent -->
<g id="node3" class="node">
<title>LayoutTwoColumnComponent</title>
<polygon fill="#ffffb3" stroke="black" points="337.77,-84.8 146.23,-84.8 146.23,-48.8 337.77,-48.8 337.77,-84.8"/>
<text text-anchor="middle" x="242" y="-62.6" font-family="Times,serif" font-size="14.00">LayoutTwoColumnComponent</text>
</g>
<!-- LayoutTwoColumnComponent&#45;&gt;LayoutsModule -->
<g id="edge3" class="edge">
<title>LayoutTwoColumnComponent&#45;&gt;LayoutsModule</title>
<path fill="none" stroke="black" d="M326.28,-84.91C326.28,-84.91 326.28,-103.79 326.28,-103.79"/>
<polygon fill="black" stroke="black" points="322.78,-103.79 326.28,-113.79 329.78,-103.79 322.78,-103.79"/>
</g>
<!-- LayoutGenericComponent  -->
<g id="node6" class="node">
<title>LayoutGenericComponent </title>
<polygon fill="#fb8072" stroke="black" points="627.29,-214.8 458.71,-214.8 458.71,-178.8 627.29,-178.8 627.29,-214.8"/>
<text text-anchor="middle" x="543" y="-192.6" font-family="Times,serif" font-size="14.00">LayoutGenericComponent </text>
</g>
<!-- LayoutsModule&#45;&gt;LayoutGenericComponent  -->
<g id="edge5" class="edge">
<title>LayoutsModule&#45;&gt;LayoutGenericComponent </title>
<path fill="none" stroke="black" stroke-dasharray="5,2" d="M419.48,-137.8C448.68,-137.8 479.19,-137.8 479.19,-137.8 479.19,-137.8 479.19,-168.78 479.19,-168.78"/>
<polygon fill="black" stroke="black" points="475.69,-168.78 479.19,-178.78 482.69,-168.78 475.69,-168.78"/>
</g>
<!-- LayoutTileComponent  -->
<g id="node7" class="node">
<title>LayoutTileComponent </title>
<polygon fill="#fb8072" stroke="black" points="440.53,-214.8 293.47,-214.8 293.47,-178.8 440.53,-178.8 440.53,-214.8"/>
<text text-anchor="middle" x="367" y="-192.6" font-family="Times,serif" font-size="14.00">LayoutTileComponent </text>
</g>
<!-- LayoutsModule&#45;&gt;LayoutTileComponent  -->
<g id="edge6" class="edge">
<title>LayoutsModule&#45;&gt;LayoutTileComponent </title>
<path fill="none" stroke="black" stroke-dasharray="5,2" d="M367,-149.91C367,-149.91 367,-168.79 367,-168.79"/>
<polygon fill="black" stroke="black" points="363.5,-168.79 367,-178.79 370.5,-168.79 363.5,-168.79"/>
</g>
<!-- LayoutTwoColumnComponent  -->
<g id="node8" class="node">
<title>LayoutTwoColumnComponent </title>
<polygon fill="#fb8072" stroke="black" points="275.77,-214.8 80.23,-214.8 80.23,-178.8 275.77,-178.8 275.77,-214.8"/>
<text text-anchor="middle" x="178" y="-192.6" font-family="Times,serif" font-size="14.00">LayoutTwoColumnComponent </text>
</g>
<!-- LayoutsModule&#45;&gt;LayoutTwoColumnComponent  -->
<g id="edge7" class="edge">
<title>LayoutsModule&#45;&gt;LayoutTwoColumnComponent </title>
<path fill="none" stroke="black" stroke-dasharray="5,2" d="M314.58,-137.8C269.22,-137.8 210.88,-137.8 210.88,-137.8 210.88,-137.8 210.88,-168.78 210.88,-168.78"/>
<polygon fill="black" stroke="black" points="207.38,-168.78 210.88,-178.78 214.38,-168.78 207.38,-168.78"/>
</g>
<!-- SharedModule -->
<g id="node5" class="node">
<title>SharedModule</title>
<polygon fill="#8dd3c7" stroke="black" points="122.43,-84.8 119.43,-88.8 98.43,-88.8 95.43,-84.8 23.57,-84.8 23.57,-48.8 122.43,-48.8 122.43,-84.8"/>
<text text-anchor="middle" x="73" y="-62.6" font-family="Times,serif" font-size="14.00">SharedModule</text>
</g>
<!-- SharedModule&#45;&gt;LayoutsModule -->
<g id="edge4" class="edge">
<title>SharedModule&#45;&gt;LayoutsModule</title>
<path fill="none" stroke="black" d="M101.29,-84.82C101.29,-102.17 101.29,-125.8 101.29,-125.8 101.29,-125.8 304.82,-125.8 304.82,-125.8"/>
<polygon fill="black" stroke="black" points="304.82,-129.3 314.82,-125.8 304.82,-122.3 304.82,-129.3"/>
</g>
</g>
</svg>
