<?xml version="1.0" encoding="UTF-8" standalone="no"?>
<!DOCTYPE svg PUBLIC "-//W3C//DTD SVG 1.1//EN"
 "http://www.w3.org/Graphics/SVG/1.1/DTD/svg11.dtd">
<!-- Generated by graphviz version 5.0.0 (20220707.1540)
 -->
<!-- Title: dependencies Pages: 1 -->
<svg width="332pt" height="247pt"
 viewBox="0.00 0.00 332.00 246.80" xmlns="http://www.w3.org/2000/svg" xmlns:xlink="http://www.w3.org/1999/xlink">
<g id="graph0" class="graph" transform="scale(1 1) rotate(0) translate(4 242.8)">
<title>dependencies</title>
<polygon fill="white" stroke="transparent" points="-4,4 -4,-242.8 328,-242.8 328,4 -4,4"/>
<text text-anchor="middle" x="162" y="-8.2" font-family="sans-serif" font-size="14.00">dependencies</text>
<g id="clust1" class="cluster">
<title>cluster_FeatMessageModule</title>
<polygon fill="none" stroke="black" stroke-dasharray="1,5" points="8,-32.8 8,-230.8 316,-230.8 316,-32.8 8,-32.8"/>
</g>
<g id="clust2" class="cluster">
<title>cluster_FeatMessageModule_declarations</title>
<polygon fill="none" stroke="black" points="138,-40.8 138,-92.8 308,-92.8 308,-40.8 138,-40.8"/>
</g>
<g id="clust5" class="cluster">
<title>cluster_FeatMessageModule_exports</title>
<polygon fill="none" stroke="black" points="75,-170.8 75,-222.8 249,-222.8 249,-170.8 75,-170.8"/>
</g>
<g id="clust4" class="cluster">
<title>cluster_FeatMessageModule_imports</title>
<polygon fill="none" stroke="black" points="16,-40.8 16,-92.8 130,-92.8 130,-40.8 16,-40.8"/>
</g>
<!-- FeatMessageComponent -->
<g id="node1" class="node">
<title>FeatMessageComponent</title>
<polygon fill="#ffffb3" stroke="black" points="300.42,-84.8 145.58,-84.8 145.58,-48.8 300.42,-48.8 300.42,-84.8"/>
<text text-anchor="middle" x="223" y="-62.6" font-family="Times,serif" font-size="14.00">FeatMessageComponent</text>
</g>
<!-- FeatMessageModule -->
<g id="node2" class="node">
<title>FeatMessageModule</title>
<polygon fill="#8dd3c7" stroke="black" points="228.14,-149.8 225.14,-153.8 204.14,-153.8 201.14,-149.8 95.86,-149.8 95.86,-113.8 228.14,-113.8 228.14,-149.8"/>
<text text-anchor="middle" x="162" y="-127.6" font-family="Times,serif" font-size="14.00">FeatMessageModule</text>
</g>
<!-- FeatMessageComponent&#45;&gt;FeatMessageModule -->
<g id="edge1" class="edge">
<title>FeatMessageComponent&#45;&gt;FeatMessageModule</title>
<path fill="none" stroke="black" d="M187.06,-84.91C187.06,-84.91 187.06,-103.79 187.06,-103.79"/>
<polygon fill="black" stroke="black" points="183.56,-103.79 187.06,-113.79 190.56,-103.79 183.56,-103.79"/>
</g>
<!-- FeatMessageComponent  -->
<g id="node4" class="node">
<title>FeatMessageComponent </title>
<polygon fill="#fb8072" stroke="black" points="240.92,-214.8 83.08,-214.8 83.08,-178.8 240.92,-178.8 240.92,-214.8"/>
<text text-anchor="middle" x="162" y="-192.6" font-family="Times,serif" font-size="14.00">FeatMessageComponent </text>
</g>
<!-- FeatMessageModule&#45;&gt;FeatMessageComponent  -->
<g id="edge3" class="edge">
<title>FeatMessageModule&#45;&gt;FeatMessageComponent </title>
<path fill="none" stroke="black" stroke-dasharray="5,2" d="M162,-149.91C162,-149.91 162,-168.79 162,-168.79"/>
<polygon fill="black" stroke="black" points="158.5,-168.79 162,-178.79 165.5,-168.79 158.5,-168.79"/>
</g>
<!-- SharedModule -->
<g id="node3" class="node">
<title>SharedModule</title>
<polygon fill="#8dd3c7" stroke="black" points="122.43,-84.8 119.43,-88.8 98.43,-88.8 95.43,-84.8 23.57,-84.8 23.57,-48.8 122.43,-48.8 122.43,-84.8"/>
<text text-anchor="middle" x="73" y="-62.6" font-family="Times,serif" font-size="14.00">SharedModule</text>
</g>
<!-- SharedModule&#45;&gt;FeatMessageModule -->
<g id="edge2" class="edge">
<title>SharedModule&#45;&gt;FeatMessageModule</title>
<path fill="none" stroke="black" d="M108.95,-84.91C108.95,-84.91 108.95,-103.79 108.95,-103.79"/>
<polygon fill="black" stroke="black" points="105.45,-103.79 108.95,-113.79 112.45,-103.79 105.45,-103.79"/>
</g>
</g>
</svg>
