<?xml version="1.0" encoding="UTF-8" standalone="no"?>
<!DOCTYPE svg PUBLIC "-//W3C//DTD SVG 1.1//EN"
 "http://www.w3.org/Graphics/SVG/1.1/DTD/svg11.dtd">
<!-- Generated by graphviz version 5.0.0 (20220707.1540)
 -->
<!-- Title: dependencies Pages: 1 -->
<svg width="314pt" height="174pt"
 viewBox="0.00 0.00 314.00 173.80" xmlns="http://www.w3.org/2000/svg" xmlns:xlink="http://www.w3.org/1999/xlink">
<g id="graph0" class="graph" transform="scale(1 1) rotate(0) translate(4 169.8)">
<title>dependencies</title>
<polygon fill="white" stroke="transparent" points="-4,4 -4,-169.8 310,-169.8 310,4 -4,4"/>
<text text-anchor="middle" x="153" y="-8.2" font-family="sans-serif" font-size="14.00">dependencies</text>
<g id="clust1" class="cluster">
<title>cluster_SharedModule</title>
<polygon fill="none" stroke="black" stroke-dasharray="1,5" points="8,-32.8 8,-157.8 298,-157.8 298,-32.8 8,-32.8"/>
</g>
<g id="clust4" class="cluster">
<title>cluster_SharedModule_exports</title>
<polygon fill="none" stroke="black" points="16,-97.8 16,-149.8 290,-149.8 290,-97.8 16,-97.8"/>
</g>
<!-- KlgImportModule  -->
<g id="node1" class="node">
<title>KlgImportModule </title>
<polygon fill="#fb8072" stroke="black" points="282.16,-141.8 159.84,-141.8 159.84,-105.8 282.16,-105.8 282.16,-141.8"/>
<text text-anchor="middle" x="221" y="-119.6" font-family="Times,serif" font-size="14.00">KlgImportModule </text>
</g>
<!-- NgImportModule  -->
<g id="node2" class="node">
<title>NgImportModule </title>
<polygon fill="#fb8072" stroke="black" points="142.27,-141.8 23.73,-141.8 23.73,-105.8 142.27,-105.8 142.27,-141.8"/>
<text text-anchor="middle" x="83" y="-119.6" font-family="Times,serif" font-size="14.00">NgImportModule </text>
</g>
<!-- SharedModule -->
<g id="node3" class="node">
<title>SharedModule</title>
<polygon fill="#8dd3c7" stroke="black" points="201.43,-76.8 198.43,-80.8 177.43,-80.8 174.43,-76.8 102.57,-76.8 102.57,-40.8 201.43,-40.8 201.43,-76.8"/>
<text text-anchor="middle" x="152" y="-54.6" font-family="Times,serif" font-size="14.00">SharedModule</text>
</g>
<!-- SharedModule&#45;&gt;KlgImportModule  -->
<g id="edge1" class="edge">
<title>SharedModule&#45;&gt;KlgImportModule </title>
<path fill="none" stroke="black" stroke-dasharray="5,2" d="M180.57,-76.91C180.57,-76.91 180.57,-95.79 180.57,-95.79"/>
<polygon fill="black" stroke="black" points="177.07,-95.79 180.57,-105.79 184.07,-95.79 177.07,-95.79"/>
</g>
<!-- SharedModule&#45;&gt;NgImportModule  -->
<g id="edge2" class="edge">
<title>SharedModule&#45;&gt;NgImportModule </title>
<path fill="none" stroke="black" stroke-dasharray="5,2" d="M122.46,-76.91C122.46,-76.91 122.46,-95.79 122.46,-95.79"/>
<polygon fill="black" stroke="black" points="118.96,-95.79 122.46,-105.79 125.96,-95.79 118.96,-95.79"/>
</g>
</g>
</svg>
